<?xml version="1.0" encoding="utf-8"?>
<!-- Generator: Adobe Illustrator 16.0.0, SVG Export Plug-In . SVG Version: 6.00 Build 0)  -->
<!DOCTYPE svg PUBLIC "-//W3C//DTD SVG 1.1//EN" "http://www.w3.org/Graphics/SVG/1.1/DTD/svg11.dtd">
<svg version="1.1" id="Layer_1" xmlns="http://www.w3.org/2000/svg" xmlns:xlink="http://www.w3.org/1999/xlink" x="0px" y="0px"
	 width="125px" height="125px" viewBox="0 0 125 125" enable-background="new 0 0 125 125" xml:space="preserve">
<g>
	<path fill="#2D6867" stroke="#2D6867" stroke-miterlimit="10" d="M23.829,25.9c0-0.806,0.259-1.467,0.777-1.985
		c0.518-0.518,1.18-0.776,1.984-0.776h71.817c0.805,0,1.467,0.259,1.984,0.776c0.52,0.519,0.777,1.18,0.777,1.985v6.906
		c0,0.806-0.258,1.467-0.777,1.985c-0.518,0.518-1.18,0.776-1.984,0.776H26.591c-0.805,0-1.467-0.259-1.984-0.776
		c-0.519-0.519-0.777-1.18-0.777-1.985V25.9z M98.408,57.666c0.805,0,1.467-0.259,1.984-0.776c0.52-0.519,0.777-1.18,0.777-1.985
		v-6.906c0-0.806-0.258-1.467-0.777-1.985c-0.518-0.518-1.18-0.776-1.984-0.776H26.591c-0.805,0-1.467,0.259-1.984,0.776
		c-0.519,0.519-0.777,1.18-0.777,1.985v6.906c0,0.806,0.259,1.467,0.777,1.985c0.518,0.518,1.18,0.776,1.984,0.776H98.408z
		 M98.408,79.764c0.805,0,1.467-0.259,1.984-0.776c0.52-0.519,0.777-1.18,0.777-1.985v-6.906c0-0.806-0.258-1.467-0.777-1.985
		c-0.518-0.518-1.18-0.776-1.984-0.776H26.591c-0.805,0-1.467,0.259-1.984,0.776c-0.519,0.519-0.777,1.18-0.777,1.985v6.906
		c0,0.806,0.259,1.467,0.777,1.985c0.518,0.518,1.18,0.776,1.984,0.776H98.408z M98.408,101.861c0.805,0,1.467-0.259,1.984-0.776
		c0.52-0.519,0.777-1.18,0.777-1.985v-6.906c0-0.806-0.258-1.467-0.777-1.985c-0.518-0.518-1.18-0.776-1.984-0.776H26.591
		c-0.805,0-1.467,0.259-1.984,0.776c-0.519,0.519-0.777,1.18-0.777,1.985V99.1c0,0.806,0.259,1.467,0.777,1.985
		c0.518,0.518,1.18,0.776,1.984,0.776H98.408z"/>
</g>
</svg>
