<?xml version="1.0" encoding="utf-8"?>
<!-- Generator: Adobe Illustrator 16.0.0, SVG Export Plug-In . SVG Version: 6.00 Build 0)  -->
<!DOCTYPE svg PUBLIC "-//W3C//DTD SVG 1.1//EN" "http://www.w3.org/Graphics/SVG/1.1/DTD/svg11.dtd">
<svg version="1.1" id="Layer_1" xmlns="http://www.w3.org/2000/svg" xmlns:xlink="http://www.w3.org/1999/xlink" x="0px" y="0px"
	 width="441.044px" height="402.04px" viewBox="0 0 441.044 402.04" enable-background="new 0 0 441.044 402.04"
	 xml:space="preserve">
<path fill="#2D6867" d="M255.388,125.832h-36.28c-1.862-0.152-3.204-1.617-3.204-3.411V56.905c0-1.849,1.559-3.411,3.404-3.411
	h36.08c1.909,0,3.404,1.499,3.404,3.411c0,2.002-1.464,3.512-3.404,3.512h-32.574v25.834h28.363c1.878,0,3.406,1.576,3.406,3.513
	c0,1.849-1.56,3.411-3.406,3.411h-28.363v25.733h32.574c1.94,0,3.404,1.51,3.404,3.513
	C258.792,124.333,257.297,125.832,255.388,125.832z"/>
<path fill="#2D6867" d="M266.411,246.401c-1.045,0-1.924-0.402-2.613-1.195c-0.162-0.125-0.377-0.3-0.539-0.576l-40.244-56.107
	v54.468c0,1.849-1.561,3.411-3.406,3.411s-3.404-1.563-3.404-3.411v-64.376c-0.353-1.377,0.121-2.728,1.286-3.637
	c1.759-1.135,3.928-0.623,4.866,0.856l40.648,56.517v-54.172c0-1.85,1.561-3.412,3.406-3.412c1.934,0,3.506,1.53,3.506,3.412v64.812
	C269.917,244.871,268.345,246.401,266.411,246.401z"/>
<path fill="#2D6867" d="M309.7,125.832c-20.666,0-37.48-16.36-37.48-36.471c0-20.571,16.461-36.768,37.477-36.872
	c8.371,0,16.631,2.822,23.264,7.945c0.816,0.669,1.303,1.633,1.354,2.664c0.045,0.88-0.234,1.685-0.785,2.277
	c-0.623,0.885-1.6,1.389-2.691,1.389c-0.773,0-1.525-0.262-2.119-0.738c-5.545-4.324-12.125-6.613-19.018-6.613
	c-16.855,0-30.57,13.435-30.57,29.948c0,16.292,13.715,29.547,30.57,29.547c7.107,0,13.781-2.343,18.795-6.595l0.092-0.069
	c0.637-0.426,1.365-0.651,2.107-0.651c1.137,0,2.148,0.54,2.74,1.452c0.596,0.603,0.908,1.46,0.861,2.378
	c-0.055,1.037-0.563,2.002-1.357,2.58C326.411,123.046,318.151,125.832,309.7,125.832z"/>
<path fill="#2D6867" d="M382.353,125.832c-19.449,0-34.768-16.106-34.875-36.666c0.107-20.571,15.426-36.677,34.875-36.677
	c19.283,0,34.469,16.105,34.572,36.666C416.821,109.726,401.636,125.832,382.353,125.832z M382.353,59.513
	c-15.68,0-27.963,13.023-27.963,29.648c0,16.402,12.545,29.747,27.963,29.747c15.104,0,27.469-13.347,27.563-29.753
	C409.821,72.815,397.458,59.513,382.353,59.513z"/>
<path fill="#2D6867" d="M319.923,246.401c-19.449,0-34.768-16.105-34.875-36.666c0.107-20.57,15.426-36.677,34.875-36.677
	c19.283,0,34.469,16.106,34.572,36.667C354.392,230.296,339.206,246.401,319.923,246.401z M319.923,180.083
	c-15.68,0-27.963,13.022-27.963,29.646c0,16.403,12.545,29.748,27.963,29.748c15.104,0,27.469-13.348,27.563-29.754
	C347.392,193.385,335.028,180.083,319.923,180.083z"/>
<path fill="#2D6867" d="M273.427,366.971c-1.91,0-3.406-1.499-3.406-3.411v-54.773l-20.637,28.729
	c-0.578,0.933-1.645,1.521-2.816,1.521h-0.201c-1.309,0-2.301-0.53-2.951-1.576l-20.601-28.581v54.681
	c0,1.85-1.56,3.411-3.405,3.411c-1.933,0-3.505-1.53-3.505-3.411v-65.113c0-1.021,0.457-1.97,1.233-2.586
	c0.075-0.096,0.174-0.189,0.304-0.273l0.127-0.094c0.582-0.371,1.253-0.567,1.941-0.567c1.131,0,2.156,0.52,2.813,1.425
	l24.144,33.541l24.043-33.535c0.557-0.879,1.611-1.431,2.789-1.431c0.707,0,1.387,0.196,1.969,0.567l0.17,0.137
	c0.318,0.318,0.57,0.57,0.826,0.953l0.064,0.111c0.34,0.684,0.504,1.256,0.504,1.752v65.113
	C276.831,365.409,275.272,366.971,273.427,366.971z"/>
<path fill="#2D6867" d="M304.587,366.971c-1.846,0-3.406-1.562-3.406-3.411v-65.516c0-1.85,1.561-3.411,3.406-3.411
	c1.934,0,3.506,1.53,3.506,3.411v65.516C308.093,365.44,306.521,366.971,304.587,366.971z"/>
<path fill="#2D6867" d="M378.946,366.971c-1.379,0-2.709-0.92-3.232-2.237l-5.98-15.95h-30.582l-5.971,15.931
	c-0.549,1.379-1.818,2.257-3.242,2.257c-0.129,0-0.314-0.022-0.518-0.055c-0.127-0.02-0.266-0.046-0.385-0.046h-0.199l-0.186-0.077
	c-1.734-0.726-2.641-2.839-1.939-4.522l24.34-65.179c0.578-1.313,1.912-2.158,3.34-2.158c1.547,0,2.926,0.901,3.355,2.192
	l24.342,65.179c0.705,1.7-0.137,3.771-1.854,4.488l-0.186,0.077h-0.201c-0.141,0-0.242,0.021-0.338,0.039
	C379.325,366.943,379.151,366.971,378.946,366.971z M341.706,341.859h25.477l-12.691-33.936L341.706,341.859z"/>
<path fill-rule="evenodd" clip-rule="evenodd" fill="#2D6867" d="M173.794,277.399c0,0-9.619,13.541-30.796,13.948
	c-15.704,0.302-37.173-7.948-37.172-34.695c0-6.753,3.508-18.957,8.787-24.218c0,0,13.931,13.967,14.235,20.377
	c0,0-4.686,5.545,4.361,13.915c8.834,8.173,28.334-2.608,32.589-23.355c3.902-19.028,2.691-37.313-4.936-42.61
	c0,0,2.967-16.721,3.06-27.598c0,0,16.655,8.573,22.491,27.242C192.25,219.075,194.18,250.364,173.794,277.399z"/>
<path fill-rule="evenodd" clip-rule="evenodd" fill="#2D6867" d="M155.544,256.149c0,0-4.25-23.393-19.775-38.938
	c-13.467-13.485-4.436-20.692-4.436-20.692c2.708-14.131,2.019-29.302,2.019-29.302c-36.182,12.677-26.877,50.054-16.366,61.433
	c19.283,20.875,19.308,36,19.308,36S147.817,268.149,155.544,256.149z"/>
<path fill-rule="evenodd" clip-rule="evenodd" fill="#2D6867" d="M191.766,83.702h-15.321h-58.929h-15.321
	c-2.604,0-4.715,2.104-4.715,4.697v7.045c0,2.594,2.111,4.697,4.715,4.697h3.535v12.916c0,13.445,12.754,29.765,32.278,34.11
	c0.218,15.356,0.249,39.619-1.551,46.231c-2.858,10.496-3.788,12.75-3.788,12.75c3.167,5.168,10.812,10.752,13.811,19.032
	c9.397-15.114,8.177-16.841,11.258-29.537c2.285-9.413,2.671-33.967,2.624-49.386c16.101-5.393,27.869-20.567,27.869-33.201v-12.916
	h3.536c2.604,0,4.714-2.104,4.714-4.697v-7.045C196.48,85.806,194.37,83.702,191.766,83.702z"/>
<path fill-rule="evenodd" clip-rule="evenodd" fill="#2D6867" d="M160.871,291.649c-9.577,7-23.149,4.261-23.149,4.261
	c2.555,18.581,2.084,31.284-1.96,45.003c-4.711-6.105-11.915-13.131-22.426-18.181c-23.455-11.271-39.711-9.632-42.481-9.632
	s-3.694-3.669-3.694-3.669s-1.031-2.557,2.771-2.751c37.527-1.923,54.949,15.593,54.949,15.593
	c1.499-23.397-17.612-39.985-32.323-39.441c-38.175,1.411-43.228-9.834-45.714-13.759c-6.962-10.983-9.987-3.405-12.93,19.721
	c-3.654,28.722,16.172,63.399,51.717,65.583c24.904,1.53,32.988-16.038,32.24-14.051c8.49,6.068,12.959,15.992,13.012,15.885
	c0,0,0.351,0.602,0.981,1.377c1.04,4.682,5.341,6.859,9.147,7.535c6.843,1.215,10.467-0.904,14.844-11.631
	C168.52,322.461,160.871,291.649,160.871,291.649z"/>
<path fill-rule="evenodd" clip-rule="evenodd" fill="#2D6867" d="M178.802,80.18V49.459c0-4.435-3.566-8.029-7.967-8.029
	c-4.398,0-7.965,3.595-7.965,8.029V80.18H178.802z"/>
<path fill-rule="evenodd" clip-rule="evenodd" fill="#2D6867" d="M131.09,80.18V49.459c0-4.435-3.565-8.029-7.966-8.029
	c-4.398,0-7.965,3.595-7.965,8.029V80.18H131.09z"/>
</svg>
