<?xml version="1.0" encoding="utf-8"?>
<!-- Generator: Adobe Illustrator 16.0.0, SVG Export Plug-In . SVG Version: 6.00 Build 0)  -->
<!DOCTYPE svg PUBLIC "-//W3C//DTD SVG 1.1//EN" "http://www.w3.org/Graphics/SVG/1.1/DTD/svg11.dtd">
<svg version="1.1" id="Layer_1" xmlns="http://www.w3.org/2000/svg" xmlns:xlink="http://www.w3.org/1999/xlink" x="0px" y="0px"
	 width="243.024px" height="309.03px" viewBox="0 0 243.024 309.03" enable-background="new 0 0 243.024 309.03"
	 xml:space="preserve">
<g>
	<path fill-rule="evenodd" clip-rule="evenodd" fill="#2D6867" d="M118.357,212.954c15.611-0.299,22.701-10.281,22.701-10.281
		c15.029-19.93,13.606-42.995,9.303-56.758c-4.302-13.762-16.578-20.082-16.578-20.082c-0.07,8.018-2.256,20.344-2.256,20.344
		c5.621,3.905,6.514,17.384,3.638,31.411c-3.136,15.294-17.511,23.241-24.022,17.217c-6.67-6.17-3.215-10.258-3.215-10.258
		c-0.225-4.726-10.495-15.021-10.495-15.021c-3.892,3.877-6.476,12.874-6.478,17.852
		C90.955,207.097,106.781,213.177,118.357,212.954z"/>
	<path fill-rule="evenodd" clip-rule="evenodd" fill="#2D6867" d="M109.759,143.05c1.997-10.417,1.489-21.601,1.489-21.601
		c-26.672,9.345-19.813,36.898-12.066,45.286c14.215,15.389,14.234,26.538,14.234,26.538s8.494,2.58,14.189-6.266
		c0,0-3.133-17.244-14.577-28.704C103.102,148.363,109.759,143.05,109.759,143.05z"/>
	<path fill-rule="evenodd" clip-rule="evenodd" fill="#2D6867" d="M88.279,72.004h2.605v9.521c0,9.912,9.402,21.941,23.794,25.145
		c0.161,11.32,0.184,29.205-1.144,34.081c-2.106,7.736-2.791,9.398-2.791,9.398c2.334,3.81,7.97,7.926,10.18,14.029
		c6.928-11.142,6.029-12.414,8.299-21.773c1.685-6.939,1.969-25.039,1.934-36.405c11.869-3.975,20.544-15.162,20.544-24.475v-9.521
		h2.607c1.919,0,3.474-1.551,3.474-3.463v-5.192c0-1.912-1.555-3.463-3.474-3.463h-11.295H99.574H88.279
		c-1.92,0-3.477,1.551-3.477,3.463v5.192C84.803,70.454,86.359,72.004,88.279,72.004z"/>
	<path fill-rule="evenodd" clip-rule="evenodd" fill="#2D6867" d="M109.58,34.643c0-3.269-2.629-5.919-5.873-5.919
		c-3.242,0-5.871,2.65-5.871,5.919V57.29h11.744V34.643z"/>
	<path fill-rule="evenodd" clip-rule="evenodd" fill="#2D6867" d="M144.751,34.643c0-3.269-2.629-5.919-5.873-5.919
		c-3.242,0-5.871,2.65-5.871,5.919V57.29h11.744V34.643z"/>
	<path fill-rule="evenodd" clip-rule="evenodd" fill="#2D6867" d="M205.383,214.335c-2.17-17.048-4.4-22.634-9.531-14.539
		c-1.833,2.894-5.558,11.183-33.699,10.142c-10.845-0.4-24.934,11.828-23.827,29.074c0,0,12.843-12.912,40.507-11.492
		c2.803,0.143,2.043,2.027,2.043,2.027s-0.682,2.705-2.725,2.705c-2.041,0-14.024-1.209-31.314,7.1
		c-8.206,3.942-13.676,9.517-17.126,14.19c6.625-20.985,1.822-40.366,1.822-40.366c-7.06,5.16-17.063,3.141-17.063,3.141
		c1.882,13.696,1.535,23.062-1.446,33.175c-3.473-4.501-8.783-9.679-16.532-13.401c-17.29-8.309-29.273-7.1-31.315-7.1
		c-2.043,0-2.724-2.707-2.724-2.707s-0.761-1.883,2.043-2.025c27.663-1.42,40.507,11.492,40.507,11.492
		c1.105-17.246-12.982-29.475-23.827-29.074c-28.142,1.041-31.866-7.249-33.699-10.142c-5.132-8.096-7.362-2.51-9.532,14.539
		c-2.692,21.172,11.922,46.734,38.125,48.344c18.357,1.129,24.317-11.822,23.766-10.357c6.26,4.473,9.553,11.789,9.592,11.709
		c0,0,0.259,0.444,0.726,1.018c0.767,3.449,3.937,5.055,6.741,5.553c3.424,0.607,5.753,0.076,7.906-2.795
		c0.313,1.118,1.107,2.339,2.975,2.869c3.573,1.014,6.127-3.383,6.127-3.383c0.039,0.08,3.334-7.236,9.592-11.709
		c-0.551-1.465,5.408,11.486,23.767,10.357C193.461,261.069,208.076,235.507,205.383,214.335z"/>
</g>
</svg>
