<?xml version="1.0" encoding="utf-8"?>
<!-- Generator: Adobe Illustrator 16.0.0, SVG Export Plug-In . SVG Version: 6.00 Build 0)  -->
<!DOCTYPE svg PUBLIC "-//W3C//DTD SVG 1.1//EN" "http://www.w3.org/Graphics/SVG/1.1/DTD/svg11.dtd">
<svg version="1.1" id="Layer_1" xmlns="http://www.w3.org/2000/svg" xmlns:xlink="http://www.w3.org/1999/xlink" x="0px" y="0px"
	 width="125px" height="125px" viewBox="0 0 125 125" enable-background="new 0 0 125 125" xml:space="preserve">
<path fill="#2D6867" d="M108.521,18.594c-0.998-2.229-3.85-2.317-5.045-0.214c-5.525,9.607-15.418,15.597-26.719,15.597H62.495
	c-18.895,0-34.225,15.33-34.225,34.226c0,1.246,0.143,2.441,0.268,3.654c11.373-8.146,27.789-15.063,51.07-15.063
	c1.568,0,2.852,1.284,2.852,2.852s-1.283,2.852-2.852,2.852c-44.813,0-63.814,27.469-68.021,37.789
	c-1.178,2.906,0.213,6.223,3.119,7.416c2.924,1.213,6.238-0.195,7.451-3.084c0.268-0.641,3.725-8.537,12.816-16.148
	c5.775,7.824,16.756,15.293,31.176,13.76c27.986-2.031,47.684-27.129,47.684-57.861C113.833,35.421,111.907,26.152,108.521,18.594z"
	/>
</svg>
