<?xml version="1.0" encoding="utf-8"?>
<!-- Generator: Adobe Illustrator 16.0.0, SVG Export Plug-In . SVG Version: 6.00 Build 0)  -->
<!DOCTYPE svg PUBLIC "-//W3C//DTD SVG 1.1//EN" "http://www.w3.org/Graphics/SVG/1.1/DTD/svg11.dtd">
<svg version="1.1" id="Layer_1" xmlns="http://www.w3.org/2000/svg" xmlns:xlink="http://www.w3.org/1999/xlink" x="0px" y="0px"
	 width="125px" height="125px" viewBox="0 0 125 125" enable-background="new 0 0 125 125" xml:space="preserve">
<g>
	<path fill="#A1D398" d="M96.768,45.003c0.936,0,1.704,0.3,2.307,0.902c0.602,0.602,0.903,1.371,0.903,2.306v6.417
		c0,0.936-0.302,1.705-0.903,2.306c-0.603,0.602-1.371,0.903-2.307,0.903H93.56v6.417c0,7.755-2.441,14.572-7.32,20.456
		c-4.879,5.883-10.996,9.56-18.35,11.029v19.854H55.055V95.74c-7.354-1.47-13.47-5.146-18.35-11.029
		c-4.88-5.884-7.32-12.701-7.32-20.456v-6.417h-3.209c-0.936,0-1.704-0.301-2.306-0.903c-0.602-0.602-0.902-1.37-0.902-2.306v-6.417
		c0-0.936,0.3-1.704,0.902-2.306s1.371-0.902,2.306-0.902H96.768z M48.638,41.794H35.803V19.333c0-1.738,0.636-3.242,1.906-4.512
		c1.27-1.27,2.774-1.905,4.512-1.905s3.242,0.636,4.512,1.905c1.27,1.27,1.905,2.774,1.905,4.512V41.794z M74.307,41.794h12.835
		V19.333c0-1.738-0.636-3.242-1.905-4.512c-1.27-1.27-2.774-1.905-4.512-1.905s-3.242,0.636-4.512,1.905
		c-1.27,1.27-1.905,2.774-1.905,4.512V41.794z"/>
</g>
</svg>
