<?xml version="1.0" encoding="utf-8"?>
<!-- Generator: Adobe Illustrator 16.0.0, SVG Export Plug-In . SVG Version: 6.00 Build 0)  -->
<!DOCTYPE svg PUBLIC "-//W3C//DTD SVG 1.1//EN" "http://www.w3.org/Graphics/SVG/1.1/DTD/svg11.dtd">
<svg version="1.1" id="Layer_1" xmlns="http://www.w3.org/2000/svg" xmlns:xlink="http://www.w3.org/1999/xlink" x="0px" y="0px"
	 width="125px" height="125px" viewBox="0 0 125 125" enable-background="new 0 0 125 125" xml:space="preserve">
<g>
	<g>
		<g>
			<path fill="#2D6867" d="M82.97,57.649H69.101c-2.93,0-5.372-2.344-5.372-5.372c0-2.93,2.442-5.371,5.372-5.371H82.97V33.329
				c0-3.125,2.442-5.566,5.567-5.566c3.027,0,5.567,2.441,5.567,5.566v13.577h13.869c2.931,0,5.372,2.441,5.372,5.371
				c0,3.028-2.441,5.372-5.372,5.372H94.104v13.577c0,3.125-2.54,5.566-5.567,5.566c-3.125,0-5.567-2.441-5.567-5.566V57.649z"/>
		</g>
	</g>
	<g>
		<path fill="#2D6867" d="M65.053,63.771c0.762,0,1.387,0.245,1.876,0.734c0.49,0.49,0.734,1.115,0.734,1.877v5.221
			c0,0.762-0.245,1.387-0.734,1.877c-0.489,0.489-1.115,0.734-1.876,0.734h-2.61v5.221c0,6.309-1.985,11.856-5.956,16.643
			s-8.947,7.777-14.929,8.974v16.153H31.116v-16.153c-5.982-1.196-10.959-4.188-14.929-8.974s-5.956-10.334-5.956-16.643v-5.221
			h-2.61c-0.762,0-1.387-0.245-1.876-0.734c-0.49-0.49-0.734-1.115-0.734-1.877v-5.221c0-0.762,0.245-1.387,0.734-1.877
			c0.489-0.489,1.115-0.734,1.876-0.734H65.053z M25.895,61.16H15.452V42.886c0-1.414,0.517-2.638,1.55-3.671
			c1.033-1.033,2.257-1.55,3.671-1.55s2.638,0.517,3.671,1.55c1.033,1.033,1.55,2.257,1.55,3.671V61.16z M46.779,61.16h10.442
			V42.886c0-1.414-0.517-2.638-1.55-3.671c-1.034-1.033-2.257-1.55-3.671-1.55s-2.638,0.517-3.671,1.55
			c-1.034,1.033-1.55,2.257-1.55,3.671V61.16z"/>
	</g>
</g>
</svg>
