<?xml version="1.0" encoding="utf-8"?>
<!-- Generator: Adobe Illustrator 16.0.0, SVG Export Plug-In . SVG Version: 6.00 Build 0)  -->
<!DOCTYPE svg PUBLIC "-//W3C//DTD SVG 1.1//EN" "http://www.w3.org/Graphics/SVG/1.1/DTD/svg11.dtd">
<svg version="1.1" id="Layer_1" xmlns="http://www.w3.org/2000/svg" xmlns:xlink="http://www.w3.org/1999/xlink" x="0px" y="0px"
	 width="125px" height="125px" viewBox="0 0 125 125" enable-background="new 0 0 125 125" xml:space="preserve">
<g>
	<path fill="#2D6867" d="M76.896,54.524h-64.94c-3.586,0-6.495,2.909-6.495,6.494v2.166h77.928v-2.166
		C83.389,57.433,80.479,54.524,76.896,54.524z M5.461,108.641c0,3.584,2.908,6.493,6.495,6.493h64.94
		c3.583,0,6.493-2.909,6.493-6.493V67.512H5.461V108.641z M53.083,77.252c0-0.594,0.487-1.081,1.083-1.081h19.481
		c0.596,0,1.082,0.487,1.082,1.081v2.166c0,0.596-0.486,1.082-1.082,1.082H54.166c-0.595,0-1.083-0.486-1.083-1.082V77.252z
		 M53.083,85.911c0-0.596,0.487-1.081,1.083-1.081h19.481c0.596,0,1.082,0.485,1.082,1.081v2.164c0,0.596-0.486,1.083-1.082,1.083
		H54.166c-0.595,0-1.083-0.487-1.083-1.083V85.911z M53.083,94.57c0-0.596,0.487-1.082,1.083-1.082h19.481
		c0.596,0,1.082,0.486,1.082,1.082v2.164c0,0.596-0.486,1.083-1.082,1.083H54.166c-0.595,0-1.083-0.487-1.083-1.083V94.57z
		 M29.272,76.171c4.776,0,8.66,3.882,8.66,8.659c0,4.773-3.883,8.658-8.66,8.658c-4.775,0-8.658-3.885-8.658-8.658
		C20.614,80.053,24.497,76.171,29.272,76.171z M14.54,103.797c1.136-3.477,4.396-5.979,8.238-5.979h1.11
		c1.663,0.688,3.476,1.081,5.383,1.081c1.909,0,3.735-0.393,5.385-1.081h1.109c3.842,0,7.103,2.503,8.239,5.979
		c0.432,1.339-0.704,2.68-2.111,2.68H16.65C15.243,106.477,14.107,105.123,14.54,103.797z"/>
	<g>
		<g>
			<path fill="#2D6867" d="M93.157,48.359h-9.885c-2.088,0-3.829-1.671-3.829-3.829c0-2.088,1.74-3.829,3.829-3.829h9.885v-9.676
				c0-2.228,1.74-3.968,3.968-3.968c2.158,0,3.968,1.74,3.968,3.968v9.676h9.885c2.088,0,3.828,1.74,3.828,3.829
				c0,2.158-1.74,3.829-3.828,3.829h-9.885v9.676c0,2.228-1.81,3.968-3.968,3.968c-2.228,0-3.968-1.74-3.968-3.968V48.359z"/>
		</g>
	</g>
</g>
</svg>
