<?xml version="1.0" encoding="utf-8"?>
<!-- Generator: Adobe Illustrator 16.0.0, SVG Export Plug-In . SVG Version: 6.00 Build 0)  -->
<!DOCTYPE svg PUBLIC "-//W3C//DTD SVG 1.1//EN" "http://www.w3.org/Graphics/SVG/1.1/DTD/svg11.dtd">
<svg version="1.1" id="Layer_1" xmlns="http://www.w3.org/2000/svg" xmlns:xlink="http://www.w3.org/1999/xlink" x="0px" y="0px"
	 width="125px" height="125px" viewBox="0 0 125 125" enable-background="new 0 0 125 125" xml:space="preserve">
<path fill="#2D6867" d="M117.078,53.882h-11.491v-11.49c0-1.579-1.293-2.873-2.872-2.873H96.97c-1.579,0-2.872,1.293-2.872,2.873
	v11.49H82.606c-1.579,0-2.873,1.294-2.873,2.873v5.744c0,1.582,1.294,2.874,2.873,2.874h11.491v11.49
	c0,1.579,1.293,2.873,2.872,2.873h5.745c1.579,0,2.872-1.294,2.872-2.873v-11.49h11.491c1.579,0,2.872-1.292,2.872-2.874v-5.744
	C119.95,55.176,118.657,53.882,117.078,53.882z M45.265,62.499c12.692,0,22.98-10.287,22.98-22.98
	c0-12.692-10.288-22.979-22.98-22.979c-12.694,0-22.981,10.288-22.981,22.979C22.284,52.212,32.571,62.499,45.265,62.499z
	 M61.351,68.245h-2.999c-3.986,1.832-8.42,2.872-13.087,2.872c-4.668,0-9.085-1.04-13.089-2.872h-2.999
	c-13.32,0-24.128,10.808-24.128,24.13v7.47c0,4.755,3.86,8.616,8.617,8.616h63.197c4.758,0,8.617-3.861,8.617-8.616v-7.47
	C85.48,79.053,74.671,68.245,61.351,68.245z"/>
</svg>
