<?xml version="1.0" encoding="utf-8"?>
<!-- Generator: Adobe Illustrator 16.0.0, SVG Export Plug-In . SVG Version: 6.00 Build 0)  -->
<!DOCTYPE svg PUBLIC "-//W3C//DTD SVG 1.1//EN" "http://www.w3.org/Graphics/SVG/1.1/DTD/svg11.dtd">
<svg version="1.1" id="Layer_1" xmlns="http://www.w3.org/2000/svg" xmlns:xlink="http://www.w3.org/1999/xlink" x="0px" y="0px"
	 width="125px" height="125px" viewBox="0 0 125 125" enable-background="new 0 0 125 125" xml:space="preserve">
<path fill="#329E7A" d="M106.199,21.715H18.802c-4.826,0-8.74,3.915-8.74,8.74v2.913h104.875v-2.913
	C114.938,25.63,111.021,21.715,106.199,21.715z M10.062,94.545c0,4.826,3.914,8.74,8.74,8.74h87.397c4.822,0,8.738-3.914,8.738-8.74
	v-55.35H10.062V94.545z M74.153,52.304c0-0.801,0.655-1.457,1.456-1.457h26.219c0.801,0,1.455,0.656,1.455,1.457v2.913
	c0,0.802-0.654,1.456-1.455,1.456H75.609c-0.801,0-1.456-0.654-1.456-1.456V52.304z M74.153,63.957c0-0.801,0.655-1.457,1.456-1.457
	h26.219c0.801,0,1.455,0.656,1.455,1.457v2.912c0,0.803-0.654,1.457-1.455,1.457H75.609c-0.801,0-1.456-0.654-1.456-1.457V63.957z
	 M74.153,75.609c0-0.801,0.655-1.455,1.456-1.455h26.219c0.801,0,1.455,0.654,1.455,1.455v2.914c0,0.801-0.654,1.457-1.455,1.457
	H75.609c-0.801,0-1.456-0.656-1.456-1.457V75.609z M42.107,50.847c6.428,0,11.653,5.226,11.653,11.653
	c0,6.426-5.226,11.654-11.653,11.654c-6.427,0-11.652-5.229-11.652-11.654C30.455,56.073,35.68,50.847,42.107,50.847z M22.28,88.027
	c1.529-4.68,5.916-8.047,11.088-8.047h1.493c2.239,0.928,4.679,1.455,7.246,1.455c2.568,0,5.025-0.527,7.247-1.455h1.493
	c5.171,0,9.559,3.367,11.088,8.047c0.582,1.803-0.946,3.605-2.84,3.605H25.12C23.226,91.633,21.697,89.813,22.28,88.027z"/>
</svg>
