<?xml version="1.0" encoding="utf-8"?>
<!-- Generator: Adobe Illustrator 16.0.0, SVG Export Plug-In . SVG Version: 6.00 Build 0)  -->
<!DOCTYPE svg PUBLIC "-//W3C//DTD SVG 1.1//EN" "http://www.w3.org/Graphics/SVG/1.1/DTD/svg11.dtd">
<svg version="1.1" id="Layer_1" xmlns="http://www.w3.org/2000/svg" xmlns:xlink="http://www.w3.org/1999/xlink" x="0px" y="0px"
	 width="125px" height="125px" viewBox="0 0 125 125" enable-background="new 0 0 125 125" xml:space="preserve">
<path fill="#A1D398" d="M114.84,77.858c0.47-2.54,0.47-5.134,0-7.675l4.648-2.685c0.541-0.306,0.775-0.937,0.595-1.531
	c-1.206-3.892-3.277-7.423-5.98-10.341c-0.414-0.451-1.082-0.559-1.622-0.252l-4.646,2.684c-1.965-1.675-4.216-2.972-6.648-3.837
	v-5.368c0-0.613-0.434-1.153-1.028-1.279c-4.017-0.9-8.106-0.865-11.925,0c-0.594,0.126-1.027,0.667-1.027,1.279v5.368
	c-2.431,0.866-4.683,2.163-6.646,3.837l-4.648-2.684c-0.523-0.307-1.207-0.198-1.622,0.252c-2.701,2.918-4.773,6.449-5.98,10.341
	c-0.181,0.595,0.071,1.226,0.594,1.531l4.648,2.685c-0.469,2.541-0.469,5.135,0,7.675l-4.648,2.684
	c-0.541,0.307-0.775,0.937-0.594,1.531c1.207,3.892,3.279,7.404,5.98,10.341c0.415,0.45,1.082,0.559,1.622,0.252l4.648-2.684
	c1.963,1.675,4.216,2.974,6.646,3.837v5.369c0,0.612,0.433,1.152,1.027,1.278c4.018,0.901,8.107,0.866,11.925,0
	c0.595-0.126,1.028-0.666,1.028-1.278v-5.369c2.433-0.863,4.684-2.162,6.648-3.837l4.646,2.684c0.522,0.307,1.208,0.198,1.622-0.252
	c2.703-2.918,4.774-6.449,5.98-10.341c0.181-0.595-0.072-1.225-0.595-1.531L114.84,77.858z M94.213,82.758
	c-4.827,0-8.737-3.927-8.737-8.737c0-4.81,3.928-8.737,8.737-8.737c4.811,0,8.738,3.928,8.738,8.737
	C102.951,78.831,99.041,82.758,94.213,82.758z M22.151,56.726c6.359,0,11.53-5.171,11.53-11.53s-5.171-11.53-11.53-11.53
	c-6.359,0-11.529,5.171-11.529,11.53S15.792,56.726,22.151,56.726z M62.506,62.491c0.342,0,0.666-0.091,1.008-0.108
	c1.496-3.909,3.693-7.584,6.541-10.665c1.333-1.441,3.224-2.27,5.205-2.27c1.245,0,2.468,0.324,3.532,0.955l1.422,0.829
	c0.145-0.091,0.29-0.162,0.434-0.252c1.261-2.63,2.018-5.548,2.018-8.647c0-11.152-9.026-20.178-20.178-20.178
	c-11.152,0-20.16,9.007-20.16,20.16C42.329,53.465,51.355,62.491,62.506,62.491z M81.459,97.531
	c-0.415-0.217-0.829-0.469-1.225-0.703c-1.478,0.865-2.756,1.767-4.954,1.767c-1.964,0-3.856-0.83-5.208-2.271
	c-3.296-3.567-5.818-7.909-7.242-12.539c-1.927-6.215,4.486-8.954,4.647-9.063c-0.018-0.467-0.018-0.936,0-1.404l-1.424-0.828
	c-0.684-0.397-1.261-0.901-1.764-1.46c-0.595,0.035-1.171,0.108-1.766,0.108c-4.433,0-8.575-1.081-12.34-2.883h-1.496
	c-11.475,0-20.772,9.296-20.772,20.755v5.188c0,4.773,3.874,8.647,8.647,8.647h46.012c-0.667-1.081-1.116-2.306-1.116-3.657V97.531
	L81.459,97.531z M36.042,65.842c-2.09-2.072-4.956-3.351-8.125-3.351H16.387c-6.36,0-11.531,5.17-11.531,11.529v5.765
	c0,3.188,2.577,5.766,5.766,5.766h11.871C23.629,77.012,28.781,69.823,36.042,65.842z"/>
</svg>
