<?xml version="1.0" encoding="utf-8"?>
<!-- Generator: Adobe Illustrator 16.0.0, SVG Export Plug-In . SVG Version: 6.00 Build 0)  -->
<!DOCTYPE svg PUBLIC "-//W3C//DTD SVG 1.1//EN" "http://www.w3.org/Graphics/SVG/1.1/DTD/svg11.dtd">
<svg version="1.1" id="Layer_1" xmlns="http://www.w3.org/2000/svg" xmlns:xlink="http://www.w3.org/1999/xlink" x="0px" y="0px"
	 width="125px" height="125px" viewBox="0 0 125 125" enable-background="new 0 0 125 125" xml:space="preserve">
<path fill="#329E7A" d="M114.76,54.248H81.753c-1.513,0-2.751,1.238-2.751,2.752v5.5c0,1.512,1.238,2.75,2.751,2.75h33.006
	c1.514,0,2.75-1.238,2.75-2.75V57C117.51,55.486,116.273,54.248,114.76,54.248z M45.997,62.5c12.153,0,22.005-9.85,22.005-22.004
	c0-12.153-9.852-22.004-22.005-22.004s-22.004,9.851-22.004,22.004C23.993,52.65,33.843,62.5,45.997,62.5z M61.4,68h-2.871
	c-3.816,1.754-8.063,2.752-12.532,2.752c-4.469,0-8.697-0.998-12.531-2.752h-2.871C17.838,68,7.49,78.35,7.49,91.105v7.152
	c0,4.555,3.696,8.25,8.251,8.25h60.512c4.557,0,8.251-3.695,8.251-8.25v-7.152C84.503,78.35,74.156,68,61.4,68z"/>
</svg>
